#!OML:ASF E:\Steps\Project 1\Capture day 1\Session 2\Subject.ASF
:FULLY-SPECIFIED
:DEGREES
631
root 4.17687 17.9148 16.1292 -155.126 -3.4452 175.714
lowerback -29.0969 -2.4981 -8.06648
upperback -0.862139 -1.15149 -0.129019
thorax 14.5287 -1.28967 3.73424
lowerneck -0.228923 -0.392473 -0.687207
upperneck 22.0671 -3.01452 2.21743
head 6.79532 -2.11578 0.563013
rclavicle -1.36602e-014 3.90115e-014
rhumerus -42.004 -18.2875 -76.0432
rradius 29.7024
rwrist -0.971616
rhand -9.23964 -55.7739
rfingers 7.12502
rthumb 16.7158 634.926
lclavicle -1.36602e-014 3.90115e-014
lhumerus -30.7041 0.0709188 83.1411
lradius 23.2416
lwrist -4.70914
lhand -20.563 -11.2436
lfingers 7.12502
lthumb 5.79629 18.6571
rfemur -22.5594 7.49522 18.3422
rtibia 12.8685
rfoot -21.2892 -2.95166
rtoes -16.7381
lfemur -21.045 -9.55668 -23.2878
ltibia 7.31103
lfoot -6.84662 -4.75805
ltoes -26.5679
632
root 4.17274 17.9137 16.1263 -155.115 -3.42143 175.691
lowerback -29.1692 -2.47696 -8.10522
upperback -0.851104 -1.1014 -0.156829
thorax 14.5676 -1.27146 3.74249
lowerneck -0.264012 -0.475777 -0.650335
upperneck 22.0428 -3.13065 2.23917
head 6.79559 -2.16438 0.556847
rclavicle -5.86415e-015 3.32964e-015
rhumerus -41.9934 -18.3107 -76.0758
rradius 29.8112
rwrist -0.979099
rhand -9.19381 -55.8961
rfingers 7.12502
rthumb 16.7599 634.807
lclavicle -5.86415e-015 3.32964e-015
lhumerus -30.6284 -0.101553 83.183
lradius 23.3685
lwrist -4.51687
lhand -20.4958 -10.8406
lfingers 7.12502
lthumb 5.86115 19.0583
rfemur -22.334 7.5325 18.2923
rtibia 12.4112
rfoot -21.0944 -2.98888
rtoes -16.8444
lfemur -21.0212 -9.51765 -23.3562
ltibia 7.28506
lfoot -6.96847 -4.62228
ltoes -27.687
633
root 4.16945 17.9141 16.1225 -155.136 -3.45658 175.748
lowerback -29.1853 -2.46933 -8.06397
upperback -0.886909 -1.11277 -0.139048
thorax 14.5349 -1.27421 3.73462
lowerneck -0.17058 -0.594929 -0.588284
upperneck 21.9316 -3.279 2.17804
head 6.74425 -2.23483 0.520303
rclavicle -1.29893e-014 -9.24349e-015
rhumerus -42.0327 -18.251 -76.0845
rradius 29.9056
rwrist -0.930025
rhand -9.04733 -56.3046
rfingers 7.12502
rthumb 16.9009 634.411
lclavicle -1.29893e-014 -9.24349e-015
lhumerus -30.6907 -0.373218 83.2631
lradius 23.4445
lwrist -4.15899
lhand -21.322 -11.7007
lfingers 7.12502
lthumb 5.06348 18.2188
rfemur -21.3315 7.39294 18.3725
rtibia 10.5193
rfoot -20.1635 -2.8067
rtoes -17.0922
lfemur -20.9481 -9.54494 -23.2964
ltibia 7.20974
lfoot -7.08756 -4.48028
ltoes -28.6271
634
root 4.16589 17.9135 16.1175 -155.182 -3.49987 175.792
lowerback -29.198 -2.44845 -8.01344
upperback -0.916572 -1.10284 -0.175766
thorax 14.5032 -1.26569 3.67046
lowerneck -0.197114 -0.524419 -0.429814
upperneck 21.9909 -3.1657 2.02469
head 6.76207 -2.18026 0.449856
rclavicle -1.57785e-015 -8.89561e-015
rhumerus -42.0307 -18.3193 -76.1255
rradius 29.8753
rwrist -0.895809
rhand -8.98402 -56.9156
rfingers 7.12502
rthumb 16.9618 633.805
lclavicle -1.57785e-015 -8.89561e-015
lhumerus -30.8002 -0.884688 83.3085
lradius 23.6074
lwrist -3.44719
lhand -21.8496 -12.4932
lfingers 7.12502
lthumb 4.55399 17.4379
rfemur -21.2393 7.43756 18.4141
rtibia 10.5117
rfoot -20.16 -2.77607
rtoes -16.5756
lfemur -20.8385 -9.65286 -23.2415
ltibia 7.12878
lfoot -7.12775 -4.44274
ltoes -28.3225
635
root 4.16304 17.9126 16.1151 -155.226 -3.44483 175.701
lowerback -29.2031 -2.41674 -8.12515
upperback -0.92682 -1.0157 -0.276907
thorax 14.4794 -1.23269 3.65358
lowerneck -0.102915 -0.51983 -0.131382
upperneck 21.9787 -3.17975 1.98405
head 6.73829 -2.17099 0.386557
rclavicle 8.24956e-015 1.73937e-014
rhumerus -41.9648 -18.5096 -76.1628
rradius 29.7118
rwrist -0.813247
rhand -9.10215 -56.9613
rfingers 7.12502
rthumb 16.8481 633.75
lclavicle 8.24956e-015 1.73937e-014
lhumerus -30.8345 -1.30476 83.2849
lradius 23.7832
lwrist -2.98565
lhand -21.7086 -12.8582
lfingers 7.12502
lthumb 4.69014 17.0699
rfemur -21.1718 7.47999 18.2672
rtibia 10.5082
rfoot -20.2055 -2.77842
rtoes -16.2173
lfemur -20.749 -9.74703 -23.3593
ltibia 7.10677
lfoot -7.15017 -4.35137
ltoes -28.4372
636
root 4.1612 17.9117 16.1121 -155.279 -3.40124 175.696
lowerback -29.2129 -2.43598 -8.18344
upperback -0.895924 -1.01452 -0.285803
thorax 14.5196 -1.23666 3.6755
lowerneck -0.122267 -0.50698 -0.268663
upperneck 21.6854 -3.14427 2.26114
head 6.65177 -2.12814 0.504769
rclavicle -9.96408e-015 8.74653e-015
rhumerus -41.7638 -18.4712 -76.2551
rradius 29.5347
rwrist -0.725845
rhand -9.23279 -56.4904
rfingers 7.12502
rthumb 16.7223 634.21
lclavicle -9.96408e-015 8.74653e-015
lhumerus -30.7946 -1.40457 83.2567
lradius 23.9154
lwrist -2.75674
lhand -21.545 -12.9955
lfingers 7.12502
lthumb 4.84817 16.9291
rfemur -21.1125 7.43918 18.2549
rtibia 10.5079
rfoot -20.2665 -2.76022
rtoes -16.4417
lfemur -20.6476 -9.81865 -23.3705
ltibia 7.04592
lfoot -7.12626 -4.20207
ltoes -28.676
637
root 4.15867 17.9095 16.1077 -155.347 -3.37885 175.734
lowerback -29.2311 -2.45235 -8.18621
upperback -0.845822 -1.02688 -0.259692
thorax 14.5894 -1.24375 3.70076
lowerneck -0.327114 -0.553972 -0.430529
upperneck 21.5982 -3.19779 2.44521
head 6.66447 -2.13912 0.587195
rclavicle -1.05853e-014 -1.07344e-014
rhumerus -41.5812 -18.4083 -76.3194
rradius 29.4356
rwrist -0.691129
rhand -9.45578 -55.8368
rfingers 7.12502
rthumb 16.5077 634.845
lclavicle -1.05853e-014 -1.07344e-014
lhumerus -30.6787 -1.42429 83.2456
lradius 23.9811
lwrist -2.56684
lhand -21.4796 -12.7581
lfingers 7.12502
lthumb 4.9113 17.165
rfemur -21.0187 7.39329 18.3086
rtibia 10.4864
rfoot -20.2653 -2.66967
rtoes -16.3231
lfemur -20.4786 -9.94801 -23.3323
ltibia 6.87787
lfoot -7.06928 -4.02384
ltoes -28.4688
638
root 4.15507 17.9085 16.1056 -155.385 -3.33564 175.74
lowerback -29.2918 -2.43429 -8.18109
upperback -0.784748 -0.987633 -0.270864
thorax 14.6839 -1.22774 3.70036
lowerneck -0.536702 -0.617913 -0.477412
upperneck 21.6574 -3.28271 2.48092
head 6.72264 -2.174 0.598694
rclavicle 2.84511e-015 4.07509e-015
rhumerus -41.3844 -18.4023 -76.367
rradius 29.3521
rwrist -0.690242
rhand -9.61098 -55.274
rfingers 7.12502
rthumb 16.3582 635.396
lclavicle 2.84511e-015 4.07509e-015
lhumerus -30.4894 -1.31004 83.1398
lradius 24.0223
lwrist -2.83294
lhand -21.2572 -12.2845
lfingers 7.12502
lthumb 5.12605 17.6335
rfemur -20.9758 7.50818 18.2695
rtibia 10.4918
rfoot -20.2712 -2.6625
rtoes -15.8768
lfemur -20.3829 -10.0646 -23.3319
ltibia 6.80773
lfoot -7.05831 -3.89802
ltoes -28.084
639
root 4.15096 17.9091 16.1041 -155.411 -3.33231 175.779
lowerback -29.3581 -2.39406 -8.12721
upperback -0.772509 -0.940653 -0.318136
thorax 14.7215 -1.20394 3.63659
lowerneck -0.284089 -0.638733 -0.214722
upperneck 21.469 -3.28329 2.31864
head 6.61239 -2.16804 0.507427
rclavicle 4.5969e-016 5.76476e-015
rhumerus -41.3381 -18.4459 -76.4158
rradius 29.3405
rwrist -0.680843
rhand -9.52811 -55.1554
rfingers 7.12502
rthumb 16.438 635.521
lclavicle 4.5969e-016 5.76476e-015
lhumerus -30.3636 -0.991421 82.8388
lradius 24.0437
lwrist -4.01181
lhand -20.8128 -11.8787
lfingers 7.12502
lthumb 5.55505 18.0285
rfemur -20.9109 7.69346 18.2581
rtibia 10.4484
rfoot -20.2979 -2.77496
rtoes -15.7472
lfemur -20.3789 -10.0206 -23.3064
ltibia 6.87316
lfoot -7.04483 -3.97263
ltoes -27.2044
640
root 4.14795 17.9088 16.1019 -155.42 -3.34043 175.813
lowerback -29.396 -2.40336 -8.11116
upperback -0.762971 -0.954764 -0.310679
thorax 14.7521 -1.21041 3.62963
lowerneck -0.386944 -0.694478 -0.351833
upperneck 21.5826 -3.37396 2.35335
head 6.67056 -2.22119 0.533675
rclavicle -1.29459e-014 3.21037e-014
rhumerus -41.24 -18.5356 -76.3956
rradius 29.3196
rwrist -0.597451
rhand -9.40656 -55.1753
rfingers 7.12502
rthumb 16.5551 635.511
lclavicle -1.29459e-014 3.21037e-014
lhumerus -30.1871 -0.591804 82.6092
lradius 23.9356
lwrist -4.92957
lhand -20.7911 -11.8422
lfingers 7.12502
lthumb 5.57602 18.0644
rfemur -20.8591 7.76562 18.2827
rtibia 10.4255
rfoot -20.3511 -2.86229
rtoes -15.7772
lfemur -20.397 -9.88694 -23.2984
ltibia 6.94431
lfoot -6.96392 -4.13988
ltoes -26.3596
641
root 4.14539 17.9076 16.1007 -155.432 -3.30924 175.784
lowerback -29.4281 -2.2595 -8.17979
upperback -0.841992 -0.741523 -0.449303
thorax 14.6434 -1.11755 3.59751
lowerneck -0.182767 -0.864778 -0.106383
upperneck 21.6405 -3.67402 2.39171
head 6.65683 -2.35832 0.488268
rclavicle 6.95746e-015 1.14301e-014
rhumerus -41.4709 -19.214 -76.1709
rradius 29.18
rwrist -0.353041
rhand -9.27261 -55.0786
rfingers 7.12502
rthumb 16.684 635.618
lclavicle 6.95746e-015 1.14301e-014
lhumerus -30.2947 -1.6982 82.8701
lradius 23.768
lwrist -2.98669
lhand -21.918 -12.9071
lfingers 7.12502
lthumb 4.48793 17.0253
rfemur -20.7976 7.78929 18.2354
rtibia 10.3518
rfoot -20.3643 -2.8739
rtoes -15.662
lfemur -20.3706 -9.86656 -23.3607
ltibia 6.9391
lfoot -6.95799 -4.11581
ltoes -26.639
